<?xml version="1.0" encoding="UTF-8" standalone="no"?>

<svg
  version="1.1"
  id="svg1"
  width="167.63416"
  height="27.97583"
  viewBox="0 0 167.63416 27.975831"
  xmlns="http://www.w3.org/2000/svg"
  xmlns:svg="http://www.w3.org/2000/svg">
  <defs
    id="defs1">
    <clipPath
      clipPathUnits="userSpaceOnUse"
      id="clipPath1819">
      <path
        d="M 0,922.241 H 1920 V 0 H 0 Z"
        transform="translate(-1520.3721,-18.179225)"
        id="path1819" />
    </clipPath>
    <clipPath
      clipPathUnits="userSpaceOnUse"
      id="clipPath1821">
      <path
        d="M 0,922.241 H 1920 V 0 H 0 Z"
        transform="translate(-1538.4814,-15.633275)"
        id="path1821" />
    </clipPath>
    <clipPath
      clipPathUnits="userSpaceOnUse"
      id="clipPath1823">
      <path
        d="M 0,922.241 H 1920 V 0 H 0 Z"
        transform="translate(-1570.5166,-18.179225)"
        id="path1823" />
    </clipPath>
    <clipPath
      clipPathUnits="userSpaceOnUse"
      id="clipPath1825">
      <path
        d="M 0,922.241 H 1920 V 0 H 0 Z"
        transform="translate(-1601.8536,-15.5981)"
        id="path1825" />
    </clipPath>
    <clipPath
      clipPathUnits="userSpaceOnUse"
      id="clipPath1827">
      <path
        d="M 0,922.241 H 1920 V 0 H 0 Z"
        transform="translate(-1625.1289,-15.589325)"
        id="path1827" />
    </clipPath>
  </defs>
  <g
    id="layer-MC3"
    transform="translate(-2009.7693,-1189.2785)">
    <path
      id="path1818"
      d="M 0,0 C 0.481,0 1.115,-0.027 1.787,-0.056 2.624,-0.09 3.572,-0.13 4.475,-0.13 c 2.048,0 3.238,0.205 3.853,0.665 0.901,0.672 1.084,1.946 1.262,3.179 0.033,0.223 0.065,0.444 0.101,0.663 0.044,0.264 0.11,0.558 0.179,0.868 0.241,1.077 0.515,2.298 0.075,3.183 -0.402,0.809 -1.66,1.17 -4.08,1.17 C 5.12,9.598 4.387,9.566 3.74,9.537 3.277,9.518 2.876,9.499 2.584,9.499 1.629,9.499 0.713,9.533 -0.174,9.566 -1.004,9.597 -1.789,9.625 -2.555,9.625 -3.686,9.625 -4.588,9.56 -5.397,9.419 -7.553,9.044 -7.771,7.469 -8.023,5.644 -8.061,5.381 -8.098,5.107 -8.143,4.822 -8.191,4.515 -8.252,4.206 -8.311,3.905 c -0.233,-1.198 -0.453,-2.329 0.1,-3.116 0.518,-0.737 1.752,-0.799 2.867,-0.799 0.201,0 0.403,0.002 0.598,0.004 C -4.561,-0.003 -4.383,0 -4.211,0 Z m -11.469,-8.879 c -0.552,0 -1.16,0.084 -1.576,0.211 0.047,1.852 0.385,3.81 0.742,5.875 0.176,1.017 0.36,2.068 0.504,3.12 0.106,0.741 0.236,1.52 0.361,2.272 0.135,0.786 0.27,1.598 0.379,2.382 0.573,4.146 1.198,6.685 5.039,6.984 0.709,0.056 1.501,0.081 2.493,0.081 0.867,0 1.75,-0.02 2.683,-0.04 0.933,-0.021 1.895,-0.042 2.838,-0.042 0.951,0 1.91,0.026 2.838,0.053 0.926,0.026 1.801,0.05 2.664,0.05 0.984,0 1.779,-0.032 2.502,-0.102 1.647,-0.158 2.82,-0.994 3.138,-2.236 C 13.436,8.565 13.178,7.312 12.93,6.1 12.832,5.623 12.74,5.174 12.682,4.736 12.256,1.483 11.887,-1.325 9.373,-2.194 8.449,-2.514 7.049,-2.551 6.078,-2.551 c -0.711,0 -1.453,0.023 -2.17,0.045 -0.701,0.022 -1.365,0.042 -1.988,0.042 -0.965,0 -1.908,-0.03 -2.82,-0.057 -0.881,-0.029 -1.713,-0.054 -2.534,-0.054 -0.941,0 -1.713,0.034 -2.427,0.108 -0.916,0.096 -1.338,0.381 -2.035,0.856 -0.153,0.102 -0.313,0.212 -0.491,0.327 l -0.574,0.372 -0.137,-0.669 c -0.041,-0.197 -0.086,-0.41 -0.134,-0.638 -0.19,-0.891 -0.426,-2.001 -0.61,-3.228 -0.045,-0.312 -0.072,-0.662 -0.099,-1.033 -0.063,-0.85 -0.148,-2.014 -0.558,-2.25 -0.125,-0.073 -0.444,-0.149 -0.97,-0.149"
      style="fill:#2666e0;fill-opacity:1;fill-rule:evenodd;stroke:none"
      transform="matrix(1.3333333,0,0,-1.3333333,2027.1628,1205.4157)"
      clip-path="url(#clipPath1819)" />
    <path
      id="path1820"
      d="m 0,0 c -0.426,0 -0.912,0.065 -1.384,0.128 -0.172,0.023 -0.34,0.046 -0.499,0.063 -0.101,1.342 0.198,2.918 0.49,4.447 0.045,0.242 0.092,0.485 0.137,0.726 0.135,0.724 0.242,1.433 0.346,2.117 0.597,3.899 1.027,6.715 5.066,7.03 0.781,0.061 1.699,0.091 2.805,0.091 1.002,0 2.05,-0.025 3.064,-0.047 0.987,-0.023 2.008,-0.045 2.955,-0.045 0.213,0 0.426,0.007 0.641,0.015 0.201,0.008 0.402,0.016 0.601,0.016 0.407,0 0.712,-0.034 0.968,-0.112 0.04,-0.778 0.073,-1.975 -0.288,-2.266 -0.048,-0.04 -0.377,-0.239 -2.006,-0.239 -0.757,0 -1.562,0.04 -2.273,0.075 -0.512,0.024 -0.955,0.046 -1.26,0.046 -0.416,0 -0.861,0.015 -1.334,0.03 -0.49,0.017 -0.998,0.033 -1.49,0.033 C 4.98,12.108 4.066,11.932 3.48,11.517 2.318,10.694 2.113,8.844 1.913,7.055 1.859,6.568 1.807,6.107 1.738,5.669 1.59,4.728 1.412,3.685 1.223,2.653 1.178,2.397 1.141,2.107 1.102,1.8 1.037,1.278 0.916,0.309 0.738,0.136 0.672,0.088 0.479,0 0,0"
      style="fill:#2666e0;fill-opacity:1;fill-rule:evenodd;stroke:none"
      transform="matrix(1.3333333,0,0,-1.3333333,2051.3085,1208.8103)"
      clip-path="url(#clipPath1821)" />
    <path
      id="path1822"
      d="m 0,0 c 0.27,0 0.568,-0.012 0.874,-0.022 0.337,-0.013 0.685,-0.026 1.026,-0.026 0.825,0 1.739,0.065 2.256,0.539 0.531,0.488 0.598,1.247 0.656,1.918 0.02,0.23 0.04,0.447 0.075,0.619 L 4.998,3.548 4.469,3.59 C 2.941,3.712 1.074,3.766 -1.588,3.766 -2.564,3.766 -3.549,3.759 -4.51,3.752 -5.423,3.745 -6.316,3.738 -7.163,3.738 c -0.458,0 -0.929,0.022 -1.384,0.041 -0.441,0.02 -0.898,0.039 -1.328,0.039 -0.51,0 -0.915,-0.027 -1.277,-0.085 -0.637,-0.102 -1.182,-0.497 -1.494,-1.085 -0.34,-0.64 -0.354,-1.4 -0.036,-2.084 l 0.092,-0.2 0.215,-0.055 c 1.227,-0.312 2.752,-0.354 4.084,-0.354 0.62,0 1.267,0.011 1.932,0.022 C -5.66,-0.012 -4.939,0 -4.209,0 Z m 2.708,-2.523 c -0.458,0 -0.935,0.014 -1.398,0.029 -0.458,0.015 -0.933,0.03 -1.382,0.03 H -11.1 c -2.562,0 -4.158,0.099 -4.714,1.48 -0.754,1.871 0.515,5.231 1.413,5.963 0.956,0.779 3.325,0.87 5.022,0.87 0.834,0 1.684,-0.024 2.504,-0.048 C -6.109,5.78 -5.387,5.76 -4.727,5.76 H 5.16 L 5.291,6.016 C 5.662,6.748 5.771,7.882 5.26,8.632 4.724,9.418 3.512,9.527 2.283,9.527 1.979,9.527 1.669,9.52 1.364,9.513 1.074,9.506 0.789,9.499 0.518,9.499 h -9.897 c -0.398,0 -0.802,-0.009 -1.203,-0.018 -0.39,-0.009 -0.777,-0.017 -1.152,-0.017 -0.602,0 -1.344,0.02 -1.957,0.161 -0.12,0.958 0.014,2.212 0.709,2.347 0.388,0.075 0.849,0.112 1.408,0.112 0.512,0 1.06,-0.03 1.59,-0.06 0.542,-0.03 1.101,-0.06 1.639,-0.06 h 4.653 c 1.098,0 2.194,0.035 3.253,0.069 1.056,0.033 2.054,0.066 3.052,0.066 1.141,0 2.078,-0.042 2.951,-0.133 C 7.57,11.758 8.623,10.666 8.691,8.721 8.729,7.652 8.542,6.631 8.326,5.447 8.224,4.896 8.119,4.323 8.031,3.708 7.577,0.534 7.121,-1.597 5.028,-2.265 4.467,-2.443 3.752,-2.523 2.708,-2.523"
      style="fill:#2666e0;fill-opacity:1;fill-rule:evenodd;stroke:none"
      transform="matrix(1.3333333,0,0,-1.3333333,2094.0221,1205.4157)"
      clip-path="url(#clipPath1823)" />
    <path
      id="path1824"
      d="m 0,0 c -0.799,0 -1.686,0.041 -2.398,0.074 -0.487,0.023 -0.907,0.043 -1.17,0.043 h -11.668 c -0.465,0 -0.93,-0.011 -1.393,-0.019 -0.447,-0.01 -0.894,-0.02 -1.332,-0.02 -0.723,0 -1.637,0.024 -2.49,0.187 -0.254,1.688 1.14,2.47 3.115,3.373 0.406,0.185 0.793,0.361 1.141,0.549 1.314,0.713 2.607,1.387 3.857,2.039 1.512,0.788 3.074,1.603 4.639,2.468 0.412,0.229 0.826,0.446 1.238,0.66 1.051,0.551 2.043,1.072 2.947,1.736 l 1.012,0.743 -1.25,0.099 c -1.969,0.156 -4.127,0.175 -5.785,0.175 -0.906,0 -1.822,-0.006 -2.733,-0.013 -0.898,-0.006 -1.793,-0.014 -2.671,-0.014 -0.288,0 -0.575,-0.009 -0.862,-0.017 -0.273,-0.01 -0.547,-0.018 -0.812,-0.018 -0.41,0 -0.918,0.018 -1.391,0.148 -0.101,0.678 -0.035,1.579 0.27,2.061 0.107,0.171 0.232,0.269 0.382,0.301 0.405,0.087 0.944,0.129 1.643,0.129 0.664,0 1.379,-0.038 2.072,-0.075 0.649,-0.032 1.264,-0.064 1.799,-0.064 h 11.078 c 0.328,0 0.742,0.016 1.223,0.034 0.57,0.023 1.217,0.048 1.814,0.048 1.426,0 1.768,-0.153 1.838,-0.2 C 4.27,14.137 4.031,12.847 3.75,12.497 3.564,12.268 2.777,11.893 2.258,11.644 2.109,11.573 1.967,11.505 1.838,11.441 -0.344,10.361 -2.586,9.111 -4.387,8.107 -5.449,7.515 -6.502,6.981 -7.52,6.466 -9.338,5.544 -11.055,4.673 -12.623,3.577 l -1.07,-0.747 1.3,-0.101 c 2.022,-0.155 4.213,-0.175 5.897,-0.175 h 0.002 c 0.908,0 1.83,0.007 2.758,0.013 0.939,0.006 1.882,0.014 2.828,0.014 0.234,0 0.515,0.01 0.818,0.02 0.344,0.012 0.697,0.025 1.041,0.025 0.947,0 1.227,-0.106 1.301,-0.15 C 2.381,2.053 2.096,0.428 1.84,0.171 1.809,0.151 1.506,0 0,0"
      style="fill:#2666e0;fill-opacity:1;fill-rule:evenodd;stroke:none"
      transform="matrix(1.3333333,0,0,-1.3333333,2135.8047,1208.8572)"
      clip-path="url(#clipPath1825)" />
    <path
      id="path1826"
      d="m 0,0 c -0.91,0 -1.861,0.034 -2.783,0.066 -0.844,0.031 -1.645,0.06 -2.348,0.06 -1.117,0 -2.203,-0.031 -3.256,-0.061 -0.996,-0.028 -1.937,-0.054 -2.855,-0.054 -1.063,0 -1.922,0.036 -2.705,0.112 -2.004,0.196 -3.088,1.525 -2.977,3.647 0.028,0.513 0.127,1.079 0.235,1.678 0.07,0.394 0.144,0.8 0.205,1.237 0.115,0.829 0.246,1.624 0.382,2.464 0.172,1.036 0.348,2.106 0.504,3.299 l 0.024,0.182 c 0.133,1.038 0.256,1.729 0.748,1.867 0.166,0.047 0.801,0.134 1.422,0.134 0.689,0 0.92,-0.105 0.97,-0.134 0.088,-0.212 0.028,-0.883 -0.181,-1.994 -0.03,-0.153 -0.053,-0.28 -0.067,-0.367 -0.228,-1.513 -0.402,-2.546 -0.601,-3.744 -0.088,-0.524 -0.18,-1.079 -0.283,-1.715 -0.036,-0.216 -0.077,-0.423 -0.118,-0.624 -0.158,-0.784 -0.308,-1.526 -0.004,-2.284 0.475,-1.185 2.03,-1.185 2.866,-1.185 0.133,0 0.265,10e-4 0.394,0.002 0.119,0.002 0.237,0.004 0.348,0.004 h 8.125 c 0.238,0 0.473,-0.004 0.703,-0.006 0.229,-0.002 0.451,-0.004 0.672,-0.004 1.623,0 3.266,0.124 3.926,1.616 0.228,0.515 0.285,1.107 0.347,1.735 0.034,0.335 0.069,0.681 0.129,1.033 0.242,1.385 0.407,2.397 0.6,3.57 0.086,0.528 0.178,1.094 0.287,1.751 0.055,0.331 0.092,0.625 0.123,0.884 0.156,1.279 0.168,1.385 1.705,1.385 0.141,0 0.287,0.015 0.443,0.032 0.155,0.016 0.315,0.032 0.461,0.032 0.301,0 0.395,-0.07 0.442,-0.123 C 8.016,14.258 7.789,13.105 7.691,12.613 7.635,12.322 7.58,12.047 7.553,11.83 7.439,10.954 7.299,10.215 7.176,9.564 7.125,9.303 7.08,9.057 7.039,8.823 6.918,8.143 6.822,7.474 6.729,6.826 6.27,3.634 5.906,1.111 3.371,0.326 2.664,0.107 1.561,0 0,0"
      style="fill:#2666e0;fill-opacity:1;fill-rule:evenodd;stroke:none"
      transform="matrix(1.3333333,0,0,-1.3333333,2166.8385,1208.8689)"
      clip-path="url(#clipPath1827)" />
  </g>
</svg>