<?xml version="1.0" encoding="UTF-8" standalone="no"?>
<svg
   width="25"
   height="25"
   viewBox="0 0 25 25"
   fill="none"
   version="1.1"
   id="svg2"
   xmlns="http://www.w3.org/2000/svg"
   xmlns:svg="http://www.w3.org/2000/svg">
  <defs
     id="defs2" />
  <path
     fill-rule="evenodd"
     clip-rule="evenodd"
     d="m 6.6025208,5.2903082 c 0.188,2.9e-4 0.3781,6.9e-4 0.5691,0.0012 l 0.8614,0.0028 c 2.1007002,0.0082 4.0945002,0.02503 4.4122002,0.02778 h 0.0878 c 0.3178,-0.0027 2.3117,-0.01955 4.4125,-0.02778 l 0.8614,-0.0028 c 0.191,-5e-4 0.3811,-9e-4 0.5691,-0.0012 l 1.3531,2.3e-4 c 1.1073,0.0025 2.0028,0.0116 2.3628,0.03195 0.8088,0.0475 1.7596,0.31151 2.296,0.91683 0.765,0.86887 0.4451,2.49905 0.3804,3.57139 -0.0866,1.3572998 -0.3459,2.7062998 -0.7222,4.0165998 -0.8689,2.9572 -3.1821,4.0468 -3.1821,4.0468 l -7.709,3.9518 1.2711,-0.0177 v 2.5121 h -3.7874 v -3.1174 l -0.1467,-0.0778 -6.3772902,-3.251 c 0,0 -2.31327,-1.0896 -3.17794995,-4.0468 -0.38461,-1.3103 -0.63977,-2.6593 -0.72638,-4.0165998 -0.06473,-1.07234 -0.33712,-2.68948 0.42791,-3.55416 0.53640995,-0.60532 1.43973995,-0.88656 2.24853995,-0.93406 0.35998,-0.02035 1.25544,-0.02944 2.36263,-0.03195 z m 0.7214,2.52631 -0.5053,1e-5 c -1.07008,9.2e-4 -1.95999,0.0081 -2.2932,0.0268 -0.67471,0.03445 -1.59526,-0.06519 -2.04087,0.39765 -0.63559,0.65281 -0.37158,2.1572298 -0.2724,2.9875298 0.12107,1.029 0.37204,1.7554 0.69193,2.75 0.71754,2.2392 2.63735,3.0653 2.63735,3.0653 l 6.9737902,3.2771 6.9221,-3.2771 c 0,0 1.9198,-0.8261 2.6373,-3.0653 0.3157,-0.9946 0.5709,-1.7685 0.7092,-2.7975 0.1341,-1.003 0.3934,-2.3044398 -0.2421,-2.9572598 -0.4452,-0.46284 -1.4137,-0.34597 -2.0884,-0.38042 -0.3332,-0.01874 -1.2232,-0.02588 -2.2933,-0.0268 l -0.5053,-1e-5 c -0.3436,2.7e-4 -0.6987,0.001 -1.0545,0.0022 l -0.5327,0.0019 c -1.6797,0.0068 -3.2492,0.01988 -3.5329,0.0223 h -0.091 c -0.2903,-0.0025 -1.9272,-0.01607 -3.6507002,-0.02277 l -0.4937,-0.0017 c -0.3292,-0.001 -0.6572,-0.0017 -0.9753,-0.0019 z m 5.1744002,8.0463898 c 0.3231,0 0.6416,0.1206 0.8866,0.366 0.237,0.2365 0.3659,0.5508 0.3659,0.8865 0,0.3315 -0.1289,0.6454 -0.3659,0.8824 -0.4904,0.4908 -1.2824,0.4908 -1.7732,0 -0.2365,-0.237 -0.366,-0.5509 -0.366,-0.8824 0,-0.3357 0.1295,-0.65 0.366,-0.8865 0.2454,-0.2454 0.5681,-0.366 0.8866,-0.366 z m 4.1833,-1.2823 c 0.0177,0.0172 0.0261,0.0386 0.0261,0.06 0,0.0214 -0.0084,0.0429 -0.0261,0.0601 l -1.0975,1.1021 c -0.0344,0.0298 -0.0903,0.0298 -0.1248,0 -0.7873,-0.792 -1.842,-1.2269 -2.9609,-1.2269 -1.1189,0 -2.1694,0.4349 -2.9610002,1.2269 -0.0344,0.0298 -0.0903,0.0298 -0.1206,0 l -1.1017,-1.1021 c -0.0344,-0.034 -0.0344,-0.0857 0,-0.1201 2.3068002,-2.3073 6.0598002,-2.3073 8.3665002,0 z m 2.1996,-2.1996 c 0.0344,0.0345 0.0344,0.0903 0,0.1206 l -1.0975,1.1017 c -0.0345,0.0303 -0.0903,0.0303 -0.1248,0 -1.3773,-1.3774 -3.2064,-2.1345 -5.1606,-2.1345 -1.9496,0 -3.7833002,0.7571 -5.1602002,2.1345 -0.0302,0.0303 -0.0903,0.0303 -0.1206,0 l -1.1021,-1.1017 c -0.02981,-0.0303 -0.02981,-0.0861 0,-0.1206 3.5211,-3.5206498 9.2451002,-3.5206498 12.7658002,0 z"
     fill="#256295"
     id="path1" />
</svg>
