<svg width="160" height="32" viewBox="0 0 160 32" fill="none" xmlns="http://www.w3.org/2000/svg">
<path fill-rule="evenodd" clip-rule="evenodd" d="M10.4922 6C10.6802 6.00029 10.8703 6.00069 11.0613 6.00119L11.9227 6.00402C14.0234 6.01225 16.0172 6.02905 16.3349 6.0318H16.4227C16.7405 6.02905 18.7344 6.01225 20.8352 6.00402L21.6966 6.00119C21.8876 6.00069 22.0777 6.00029 22.2657 6L23.6188 6.00023C24.7261 6.00274 25.6216 6.01183 25.9816 6.03218C26.7904 6.07968 27.7412 6.34369 28.2776 6.94901C29.0426 7.81788 28.7227 9.44806 28.658 10.5204C28.5714 11.8777 28.3121 13.2267 27.9358 14.537C27.0669 17.4942 24.7537 18.5838 24.7537 18.5838L17.0447 22.5356L18.3158 22.5179V25.03H14.5284V21.9126L14.3817 21.8348L8.00441 18.5838C8.00441 18.5838 5.69114 17.4942 4.82646 14.537C4.44185 13.2267 4.18669 11.8777 4.10008 10.5204C4.03535 9.44806 3.76296 7.83092 4.52799 6.96624C5.0644 6.36092 5.96773 6.07968 6.77653 6.03218C7.13651 6.01183 8.03197 6.00274 9.13916 6.00023L10.4922 6ZM11.2136 8.52631L10.7083 8.52632C9.63822 8.52724 8.74831 8.53438 8.4151 8.55312C7.74039 8.58757 6.81984 8.48793 6.37423 8.95077C5.73864 9.60358 6.00265 11.108 6.10183 11.9383C6.2229 12.9673 6.47387 13.6937 6.79376 14.6883C7.5113 16.9275 9.43111 17.7536 9.43111 17.7536L16.4049 21.0307L23.327 17.7536C23.327 17.7536 25.2468 16.9275 25.9643 14.6883C26.28 13.6937 26.5352 12.9198 26.6735 11.8908C26.8076 10.8878 27.0669 9.58636 26.4314 8.93354C25.9862 8.4707 25.0177 8.58757 24.343 8.55312C24.0098 8.53438 23.1198 8.52724 22.0497 8.52632L21.5444 8.52631C21.2008 8.52658 20.8457 8.52735 20.4899 8.52848L19.9572 8.53042C18.2775 8.53726 16.708 8.5503 16.4243 8.55272H16.3333C16.043 8.55025 14.4061 8.53665 12.6826 8.52995L12.1889 8.52824C11.8597 8.52724 11.5317 8.52656 11.2136 8.52631ZM16.388 16.5727C16.7111 16.5727 17.0296 16.6933 17.2746 16.9387C17.5116 17.1752 17.6405 17.4895 17.6405 17.8252C17.6405 18.1567 17.5116 18.4706 17.2746 18.7076C16.7842 19.1984 15.9922 19.1984 15.5014 18.7076C15.2649 18.4706 15.1354 18.1567 15.1354 17.8252C15.1354 17.4895 15.2649 17.1752 15.5014 16.9387C15.7468 16.6933 16.0695 16.5727 16.388 16.5727ZM20.5713 15.2904C20.589 15.3076 20.5974 15.329 20.5974 15.3504C20.5974 15.3718 20.589 15.3933 20.5713 15.4105L19.4738 16.5126C19.4394 16.5424 19.3835 16.5424 19.349 16.5126C18.5617 15.7206 17.507 15.2857 16.3881 15.2857C15.2692 15.2857 14.2187 15.7206 13.4271 16.5126C13.3927 16.5424 13.3368 16.5424 13.3065 16.5126L12.2048 15.4105C12.1704 15.3765 12.1704 15.3248 12.2048 15.2904C14.5116 12.9831 18.2646 12.9831 20.5713 15.2904ZM22.7709 13.0908C22.8053 13.1253 22.8053 13.1811 22.7709 13.2114L21.6734 14.3131C21.6389 14.3434 21.5831 14.3434 21.5486 14.3131C20.1713 12.9357 18.3422 12.1786 16.388 12.1786C14.4384 12.1786 12.6047 12.9357 11.2278 14.3131C11.1976 14.3434 11.1375 14.3434 11.1072 14.3131L10.0051 13.2114C9.97529 13.1811 9.97529 13.1253 10.0051 13.0908C13.5262 9.57015 19.2502 9.57015 22.7709 13.0908Z" fill="#256295"/>
<path fill-rule="evenodd" clip-rule="evenodd" d="M39.0854 18.5255V18.6701C39.0854 19.5565 39.2471 20.031 39.63 20.2578C40.1141 20.5463 41.163 20.6701 43.1392 20.6701C44.813 20.6701 45.8616 20.6082 47.3138 20.4224C48.08 20.3194 48.4633 20.1752 48.7051 19.8867C48.9673 19.5565 49.1087 19.1442 49.1087 18.7112C49.1087 17.9071 48.7657 17.5153 47.8382 17.3088C47.2736 17.1854 47.2536 17.1854 43.5827 17.1646H41.6468C38.8033 17.1442 37.6937 16.9173 36.9478 16.2163C36.3024 15.6391 36 14.7731 36 13.5568C36 12.0306 36.363 10.7728 37.0084 10.1956C37.9156 9.32993 39.973 9 44.4098 9C47.1122 9 48.5641 9.10306 49.492 9.39149C51.1657 9.88639 51.7506 10.8143 51.7506 12.9377V13.2061H48.7254C48.7052 12.4017 48.5035 11.9895 48.08 11.7833C47.5154 11.5153 46.2246 11.3503 44.7325 11.3503C42.1911 11.3503 40.4165 11.5153 39.8113 11.8245C39.3276 12.0514 39.0854 12.5255 39.0854 13.165C39.0854 13.7629 39.267 14.1544 39.6503 14.3813C40.1141 14.6493 40.8802 14.7316 42.9978 14.7316H45.2771C49.3107 14.7316 50.5403 14.9585 51.3876 15.8864C51.9526 16.4843 52.2144 17.3915 52.2144 18.7524C52.2144 20.1959 51.912 21.1854 51.2466 21.8452C50.359 22.7112 48.6243 23 44.0871 23C39.2471 23 37.7343 22.7731 36.8873 21.9483C36.2825 21.3503 36.0203 20.5259 36.0203 19.2265C36.0203 19.1027 36.0203 18.7935 36.0403 18.5255H39.0854ZM54.3719 9.12371H57.4776V14.6081H58.923L65.7798 9.12371H70.2369L61.6857 15.8863L70.9022 22.8761H66.2436L58.8625 17.1445H57.4776V22.8761H54.3719V9.12371ZM72.1719 22.8759H75.2775V9.12357H72.1719V22.8759ZM77.8791 9.12371H81.3951C82.1937 9.12371 82.9362 9.54425 83.3597 10.2363L89.0116 19.474L94.6435 10.2394C95.0667 9.54529 95.8098 9.12371 96.6095 9.12371H100.063V22.8761H97.0181L97.1389 11.5564L90.1813 22.8761H87.7411L80.8234 11.5564L80.9042 22.8761H77.8791V9.12371ZM102.664 9.12371H106.18C106.978 9.12371 107.721 9.54425 108.144 10.2363L113.796 19.474L119.428 10.2394C119.851 9.54529 120.595 9.12371 121.394 9.12371H124.848V22.8761H121.803L121.924 11.5564L114.966 22.8761H112.526L105.608 11.5564L105.689 22.8761H102.664V9.12371ZM127.449 9.12371H141.748V11.536H130.514V14.7938H141.203V16.9587H130.514V20.4638H141.869V22.8761H127.449V9.12371ZM154.05 16.0513C156.309 16.0513 156.874 15.6391 156.874 13.9894C156.874 12.0925 156.41 11.701 154.111 11.701H146.97V16.0513H154.05ZM143.885 9.12378H154.978C157.338 9.12378 158.407 9.41221 159.133 10.2163C159.718 10.8762 160 11.9483 160 13.5153C160 15.0204 159.819 15.866 159.415 16.3813C159.012 16.8966 158.528 17.1442 157.721 17.2884C159.415 17.433 159.798 17.969 159.778 20.1547V22.8762H156.652V20.8142C156.612 18.9381 156.188 18.567 154.152 18.5874H146.97V22.8762H143.885V9.12378Z" fill="#256295"/>
</svg>
