<svg xmlns="http://www.w3.org/2000/svg" viewBox="0 0 65.649 7.288">
  <path fill="#0092e3" d="m5.538 2.085-.02.313H2.593l.117-.313.001-.004v-.003L2.577.538l.513 1.374.004.01.012-.002.576-.116.01-.002.005-.01L4.582 0l.09 1.792v.01l.01.001.509.103.01.002.009-.01L6.389.533 5.54 2.077l-.002.004zm4.145 5.18c-.819-.04-2.09-.156-2.125-.193-.05-.05.33-2.11.557-3.026.108-.436.324-1.221.34-1.233a28.688 28.688 0 0 1 5.658-.123c.486.038 1.177.11 1.193.124.026.023-.192 1.337-.343 2.071-.159.765-.512 2.14-.562 2.187-.024.023-.93.113-1.584.158a43.34 43.34 0 0 1-3.134.035zm2.32-1.307c.237-.013.505-.03.595-.04l.164-.015.076-.25a9.432 9.432 0 0 0 .314-1.524l.015-.138-.132-.015a24.16 24.16 0 0 0-.744-.045 10.865 10.865 0 0 0-1.283.001c-.369.018-.726.04-.793.048l-.122.016-.045.148c-.155.513-.299 1.199-.332 1.583l-.015.177.19.017c.629.06 1.445.073 2.112.037zm5.146 1.29a35.634 35.634 0 0 1-1.244-.045c-.009-.008.68-3.33.778-3.753.01-.045-.049-.1-.366-.342-.32-.244-.379-.3-.379-.354 0-.062.009-.066.149-.082.36-.04 3.148-.076 4.54-.059 1.586.02 2.044.037 2.084.078.042.04.06.656.028.914a5.665 5.665 0 0 1-.164.753c-.014.042.003.045.208.045.292 0 .286-.01.267.493a5.537 5.537 0 0 1-.492 2.09l-.1.225-.373.016c-1.54.067-3.08.074-4.936.022zm3.598-.966.367-.016.046-.117a3.37 3.37 0 0 0 .145-.69v-.086l-.24-.016a55.39 55.39 0 0 0-1.662-.016h-1.42l-.094.446c-.05.245-.085.453-.076.462.044.044 2.116.067 2.934.033zm.052-1.981c.042-.042.14-.39.153-.538l.014-.166-.095-.016c-.122-.02-1.967-.016-2.28.005l-.234.016-.067.308c-.037.17-.068.334-.068.365v.057l1.28-.008c.705-.004 1.29-.015 1.298-.023zm4.948 2.964c-.82-.04-2.09-.156-2.126-.193-.05-.05.33-2.11.557-3.026.108-.436.325-1.221.34-1.233a28.688 28.688 0 0 1 5.658-.123c.486.038 1.177.11 1.193.124.027.023-.191 1.337-.343 2.071-.159.765-.512 2.14-.562 2.187-.024.023-.93.113-1.584.158-.656.045-2.515.066-3.133.035zm2.32-1.307c.237-.013.505-.03.595-.04l.163-.015.076-.25a9.43 9.43 0 0 0 .314-1.524l.016-.138-.132-.015a24.165 24.165 0 0 0-.745-.045 10.865 10.865 0 0 0-1.283.001c-.369.018-.725.04-.792.048l-.122.016-.045.148c-.156.513-.3 1.199-.332 1.583l-.016.177.191.017c.628.06 1.444.073 2.111.037zm32.195 1.305a19.063 19.063 0 0 1-2.183-.244c-.02 0 .008-.43.055-.814.12-.988.38-2.108.704-3.038l.1-.287.251-.04c1.742-.277 3.894-.313 5.852-.1l.477.052.13.015-.015.2c-.037.468-.12 1.132-.173 1.365l-.013.056h-2.001l.017-.218.017-.219-.095-.016c-.427-.071-1.98-.08-2.542-.014l-.25.03-.076.274c-.152.541-.233.94-.311 1.523l-.015.114.216.029c.51.069 2.156.057 2.586-.018l.099-.018.06-.203.062-.203h2.009l-.085.32a12.06 12.06 0 0 1-.31 1.003l-.073.2-.252.04c-1.286.204-2.8.28-4.24.211zM.001 7.173c.118-.495.792-3.77.778-3.78-.204-.14-.743-.587-.743-.616.001-.11-.124-.106 2.963-.094 1.824.007 3.06.023 3.292.04.434.033 1.06.098 1.144.118l.06.015-.017.293A8.67 8.67 0 0 1 7.2 4.86c-.128.508-.338 1.099-.392 1.099-.09 0-.987.079-.995.087-.01.01.443.495.957 1.03l.136.141h-2.22l-1.012-1.05c-.897-.933-1.01-1.06-1.01-1.13V4.96l1.324-.013c.835-.008 1.334-.021 1.35-.037.073-.077.276-1.032.228-1.08-.011-.01-.71-.027-1.551-.035L2.483 3.78l-.028.133-.367 1.713-.338 1.58-.88.006c-.83.006-.879.004-.869-.037zm31.89.031c0-.037.295-1.348.47-2.087.11-.467.238-1.026.284-1.242.078-.368.08-.395.04-.423a30.576 30.576 0 0 1-.38-.293c-.324-.25-.369-.302-.321-.375.021-.033 1.348-.088 3.596-.149 1.266-.034 1.646-.036 2.393-.011 1.28.042 2.677.153 2.677.212 0 .112-.449 2.529-.684 3.683l-.142.697h-.884c-.83 0-.883-.003-.87-.043.007-.024.112-.543.234-1.153.226-1.137.388-2.053.366-2.075-.012-.012-.497-.045-.997-.068-.215-.01-.227-.008-.239.042l-.353 1.675-.341 1.622h-1.77l.013-.055c.078-.334.689-3.278.68-3.285-.011-.01-.819.025-1.075.047l-.177.016-.198.806a88.19 88.19 0 0 0-.541 2.373l-.019.086-.881.006c-.485.004-.881 0-.881-.006zm9.627-1.87a217.857 217.857 0 0 0 1.222-1.91c.006-.016-.162-.16-.374-.318-.358-.269-.385-.295-.37-.354a.463.463 0 0 1 .02-.067c.002-.002.337-.018.744-.036 1.33-.058 4.128-.036 4.198.034.01.01.996 4.472.996 4.509 0 .016-.313.024-.875.024h-.876l-.013-.055-.083-.364-.07-.309h-3.498l-.234.364-.235.364h-1.762zm4.113-.69-.156-.7c-.012-.05-.034-.055-.311-.071a6.647 6.647 0 0 0-.625 0l-.326.017-.393.606c-.217.334-.42.65-.45.701l-.058.095h2.463l-.144-.648zm3.96 2.517c.007-.03.159-.744.335-1.586l.335-1.585.013-.055h-.34c-.186 0-.742.012-1.235.027-.493.015-.901.022-.907.016a26.65 26.65 0 0 1 .268-1.292c.003-.002.355-.02.782-.038 1.04-.044 4.225-.044 5.244 0 .42.019.767.035.77.038a39.42 39.42 0 0 1-.277 1.294c-.005.005-.412-.004-.905-.018a59.8 59.8 0 0 0-1.23-.027h-.333l-.345 1.64-.345 1.641h-1.844l.014-.055zm5.509.012c.118-.497.792-3.77.778-3.78-.205-.14-.743-.587-.743-.616.002-.103-.018-.102 1.36-.095l1.32.006-.325 1.53c-.18.841-.396 1.86-.481 2.264l-.156.734h-.881c-.828 0-.882-.003-.872-.043z"/>
</svg>
