<?xml version="1.0" encoding="UTF-8" standalone="no"?>
<svg
   width="1240"
   height="1240"
   viewBox="0 0 1240 1240"
   fill="none"
   version="1.1"
   id="svg6"
   sodipodi:docname="robomatic.svg"
   inkscape:version="1.2.2 (b0a8486541, 2022-12-01)"
   xmlns:inkscape="http://www.inkscape.org/namespaces/inkscape"
   xmlns:sodipodi="http://sodipodi.sourceforge.net/DTD/sodipodi-0.dtd"
   xmlns="http://www.w3.org/2000/svg"
   xmlns:svg="http://www.w3.org/2000/svg">
  <defs
     id="defs10" />
  <sodipodi:namedview
     id="namedview8"
     pagecolor="#505050"
     bordercolor="#ffffff"
     borderopacity="1"
     inkscape:showpageshadow="0"
     inkscape:pageopacity="0"
     inkscape:pagecheckerboard="1"
     inkscape:deskcolor="#505050"
     showgrid="false"
     inkscape:zoom="0.35355339"
     inkscape:cx="3224.4069"
     inkscape:cy="896.61139"
     inkscape:window-width="3440"
     inkscape:window-height="1359"
     inkscape:window-x="0"
     inkscape:window-y="0"
     inkscape:window-maximized="1"
     inkscape:current-layer="g950" />
  <g
     id="g950">
    <path
       d="m 918.922,616.061 c 2.491,0.216 2.491,0.217 2.491,0.217 v 0.002 l -10e-4,0.006 -0.002,0.022 -0.008,0.087 c -0.006,0.077 -0.017,0.191 -0.03,0.341 -0.028,0.3 -0.069,0.745 -0.124,1.327 -0.112,1.166 -0.281,2.882 -0.512,5.094 -0.464,4.424 -1.178,10.83 -2.183,18.768 -2.011,15.874 -5.185,37.887 -9.841,62.443 -4.669,24.624 -11.032,46.9 -16.226,63.014 -2.598,8.06 -4.905,14.585 -6.564,19.1 -0.83,2.257 -1.498,4.013 -1.959,5.206 -0.24456,0.63571 -0.49878,1.27372 -0.718,1.827 l -0.66106,1.16038 -8.67144,-0.24338 c -19.7715,1.071 -34.7175,1.302 -52.7345,1.579 -36.035,0.554 -84.353,1.293 -133.489,2.033 -98.252,1.477 -199.824,2.956 -212.928,2.956 -6.462,0 -12.158,0.366 -16.8,1.189 -4.701,0.833 -8.042,2.088 -10.04,3.66 -0.966,0.76 -1.568,1.556 -1.903,2.378 -0.331,0.814 -0.46,1.802 -0.255,3.052 0.427,2.599 2.278,6.182 6.397,10.92 8.385,9.645 89.487,93.603 168.609,175.266 39.535,40.805 78.543,81.005 107.668,111.005 14.562,14.99 26.653,27.44 35.103,36.14 4.225,4.35 7.541,7.76 9.799,10.09 l 2.578,2.65 0.147,0.15 h 349.886 c -0.88,-0.94 -1.9,-2.03 -3.04,-3.25 -4.46,-4.75 -10.82,-11.54 -18.5,-19.73 -15.34,-16.36 -35.9,-38.27 -56.74,-60.44 -41.77,-44.42 -84.505,-89.689 -89.053,-93.825 -2.663,-2.421 -4.126,-5.035 -4.683,-7.667 -0.551,-2.607 -0.171,-5.029 0.517,-7.031 0.685,-1.993 1.697,-3.639 2.516,-4.771 0.413,-0.571 0.788,-1.026 1.066,-1.345 0.139,-0.16 0.255,-0.286 0.34,-0.377 0.043,-0.045 0.078,-0.082 0.104,-0.109 l 0.033,-0.034 0.012,-0.012 0.005,-0.005 0.002,-0.002 c 10e-4,0 10e-4,-0.001 1.769,1.766 l -1.768,-1.767 0.706,-0.706 0.996,-0.026 157.998,-4.176 c 0.25,-0.805 0.59,-1.891 1.02,-3.247 1.01,-3.241 2.49,-8.022 4.37,-14.177 3.75,-12.309 9.08,-30.113 15.37,-52.082 12.6,-43.939 29.06,-104.53 44.56,-171.141 15.47,-66.512 23.21,-129.42 27.08,-175.708 1.94,-23.14 2.9,-42.119 3.39,-55.306 0.24,-6.594 0.36,-11.74 0.42,-15.234 0.02,-1.273 0.04,-2.327 0.04,-3.152 -1.28,-0.18 -3.13,-0.436 -5.48,-0.758 -4.93,-0.677 -12.08,-1.644 -20.96,-2.805 -17.74,-2.321 -42.37,-5.416 -69.9,-8.511 C 1063.04,445.678 996.454,439.5 950.166,439.5 H 39.0438 c -1.2337,0 -2.675,0.651 -3.9987,2.056 -1.3093,1.39 -2.3326,3.356 -2.7238,5.53 -0.3874,2.152 -0.1452,4.443 0.9759,6.56 1.1156,2.107 3.1954,4.218 6.7844,5.855 2.249,1.026 5.7807,3.308 10.0901,6.35 4.3692,3.085 9.7069,7.074 15.6367,11.636 11.8624,9.128 26.1593,20.6 39.9406,31.832 13.783,11.234 27.064,22.238 36.898,30.432 4.917,4.098 8.973,7.494 11.8,9.865 1.413,1.186 2.52,2.116 3.273,2.749 0.205,0.173 0.384,0.323 0.535,0.451 0.127,0.107 0.235,0.198 0.324,0.272 l 0.22,0.185 0.055,0.047 0.014,0.012 0.004,0.003 c 10e-4,10e-4 10e-4,10e-4 -1.61,1.913 l 1.611,-1.912 1.157,0.976 -0.328,1.477 L 26.1159,1157.5 H 306.378 l 113.582,-546.171 0.414,-1.991 h 2.033 332.699 c 48.176,0 89.161,1.056 118.104,2.113 14.472,0.528 25.935,1.057 33.781,1.453 3.924,0.198 6.943,0.364 8.983,0.479 1.02,0.058 1.795,0.104 2.315,0.135 0.26,0.015 0.457,0.027 0.589,0.035 l 0.149,0.009 0.038,0.003 h 0.01 l 0.002,10e-4 c 10e-4,0 10e-4,0 -0.155,2.495 m 0,0 0.156,-2.495 2.557,0.159 -0.222,2.552 z"
       fill="#0092e3"
       stroke="#005686"
       stroke-width="5"
       id="path2"
       sodipodi:nodetypes="ccccccccccsscccccscscsccsccscccccccccssccsccccccccccccccccccccsscccccccccccccccccccccccccscsccscccccccccc"
       style="stroke:none" />
    <path
       d="m 949.494,357.11 -2.901,47.542 H 500.956 l 17.729,-47.589 0.2,-0.536 -0.045,-0.519 -20.276,-234.668 78.233,209.386 0.57,1.526 1.856,-0.375 87.62,-17.698 1.574,-0.318 0.716,-1.45 134.819,-272.9004 13.615,272.9214 0.071,1.433 1.415,0.314 77.585,15.698 1.663,0.369 1.263,-1.492 179.576,-207.889 -129.308,235.124 -0.303,0.551 z"
       fill="#0092e3"
       stroke="#005686"
       stroke-width="5"
       id="path4"
       style="stroke:none"
       sodipodi:nodetypes="cccccccccccccccccccccccc" />
  </g>
</svg>
