<?xml version="1.0" encoding="UTF-8" standalone="no"?>
<!-- Generator: Adobe Illustrator 22.1.0, SVG Export Plug-In . SVG Version: 6.00 Build 0)  -->

<svg
   version="1.1"
   id="Layer_1"
   x="0px"
   y="0px"
   viewBox="0 0 41.642815 48.156386"
   xml:space="preserve"
   width="41.642815"
   height="48.156384"
   xmlns="http://www.w3.org/2000/svg"
   xmlns:svg="http://www.w3.org/2000/svg"><defs
   id="defs10" />
<linearGradient
   id="SVGID_1_"
   gradientUnits="userSpaceOnUse"
   x1="305.6355"
   y1="412.93719"
   x2="305.6355"
   y2="443.8288">
	<stop
   offset="0"
   style="stop-color:#A14F23"
   id="stop1" />
	<stop
   offset="1"
   style="stop-color:#E1916C"
   id="stop2" />
</linearGradient>

<linearGradient
   id="SVGID_2_"
   gradientUnits="userSpaceOnUse"
   x1="292.09659"
   y1="362.55051"
   x2="319.30869"
   y2="362.55051">
	<stop
   offset="0"
   style="stop-color:#A14F23"
   id="stop3" />
	<stop
   offset="0.5019"
   style="stop-color:#E1916C"
   id="stop4" />
	<stop
   offset="1"
   style="stop-color:#A14F23"
   id="stop5" />
</linearGradient>

<linearGradient
   id="SVGID_3_"
   gradientUnits="userSpaceOnUse"
   x1="284.8811"
   y1="373.03189"
   x2="326.5242"
   y2="373.03189">
	<stop
   offset="0.2421"
   style="stop-color:#3069B3"
   id="stop6" />
	<stop
   offset="0.5"
   style="stop-color:#003974"
   id="stop7" />
	<stop
   offset="0.783"
   style="stop-color:#3069B3"
   id="stop8" />
</linearGradient>

<linearGradient
   id="SVGID_4_"
   gradientUnits="userSpaceOnUse"
   x1="376.05081"
   y1="376.8544"
   x2="376.05081"
   y2="395.66971"
   gradientTransform="matrix(-1,0,0,1,681.7534,0)">
	<stop
   offset="0"
   style="stop-color:#E1916C"
   id="stop9" />
	<stop
   offset="1"
   style="stop-color:#A14F23"
   id="stop10" />
</linearGradient>
<g
   id="g11"
   transform="translate(-284.88134,-348.69362)"><path
     style="fill:url(#SVGID_1_)"
     d="m 249.631,427.09 h 20.576 v 2.268 h -20.576 z m -21.03,16.079 h 2.291 l 12.844,-29.572 h -2.349 z m 21.03,-27.092 h 20.576 v -2.269 h -20.576 z m -33.995,-2.48 10.068,23.31 1.205,-2.786 -8.925,-20.524 z m 33.995,29.47 h 20.576 v -2.269 h -20.576 z m 114.96,-20.588 c 0.794,1.849 1.196,3.854 1.196,5.959 0,2.106 -0.403,4.11 -1.196,5.959 -0.794,1.846 -1.896,3.482 -3.276,4.863 -1.382,1.382 -3.018,2.484 -4.864,3.277 -1.849,0.794 -3.854,1.196 -5.959,1.196 -2.105,0 -4.11,-0.403 -5.959,-1.196 -1.847,-0.794 -3.483,-1.896 -4.864,-3.277 -1.382,-1.381 -2.484,-3.017 -3.276,-4.864 -0.794,-1.846 -1.196,-3.851 -1.196,-5.958 0,-2.108 0.403,-4.112 1.196,-5.959 0.792,-1.845 1.895,-3.481 3.277,-4.863 1.38,-1.381 3.017,-2.484 4.863,-3.278 1.849,-0.794 3.854,-1.196 5.959,-1.196 2.106,0 4.11,0.403 5.959,1.196 1.846,0.793 3.482,1.896 4.864,3.278 1.38,1.381 2.482,3.018 3.276,4.863 z m -1.973,0.832 c -0.688,-1.585 -1.638,-2.99 -2.825,-4.176 -1.186,-1.187 -2.591,-2.137 -4.176,-2.824 -1.581,-0.685 -3.305,-1.033 -5.126,-1.033 -1.821,0 -3.545,0.347 -5.126,1.033 -1.585,0.687 -2.99,1.637 -4.176,2.824 -1.187,1.186 -2.137,2.591 -2.825,4.176 -0.685,1.58 -1.032,3.305 -1.032,5.126 0,1.822 0.347,3.546 1.032,5.126 0.687,1.585 1.637,2.99 2.824,4.176 1.189,1.189 2.594,2.139 4.177,2.824 1.58,0.686 3.304,1.033 5.126,1.033 1.822,0 3.546,-0.348 5.126,-1.033 1.583,-0.685 2.988,-1.635 4.176,-2.824 1.187,-1.186 2.137,-2.592 2.825,-4.176 0.685,-1.582 1.032,-3.307 1.032,-5.126 0,-1.818 -0.347,-3.543 -1.032,-5.126 z m 33.017,-0.045 c -0.41,-9.324 -9.067,-9.666 -9.161,-9.668 h -13.54 v 29.572 h 2.187 v -27.414 h 11.338 c 4.503,0.274 6.244,4.268 6.266,4.32 1.562,3.288 0.024,6.102 -0.003,6.155 -2.077,4.803 -7.1,4.38 -7.316,4.359 l -0.283,-0.028 v 1.237 l 7.651,11.258 0.077,0.113 h 2.582 l -7.238,-10.652 c 7.44,-1.904 7.441,-9.17 7.44,-9.252 z m -112.722,-4.28 c 1.199,-1.199 2.618,-2.158 4.218,-2.852 1.597,-0.692 3.34,-1.043 5.179,-1.043 1.839,0 3.576,0.337 5.16,1.003 1.587,0.667 2.998,1.612 4.195,2.81 l 0.183,0.183 1.513,-1.513 -0.186,-0.182 c -1.41,-1.381 -3.055,-2.48 -4.89,-3.266 -1.839,-0.788 -3.849,-1.188 -5.976,-1.188 -2.126,0 -4.15,0.407 -6.017,1.208 -1.865,0.802 -3.517,1.915 -4.911,3.31 -1.396,1.396 -2.509,3.048 -3.309,4.911 -0.802,1.865 -1.208,3.889 -1.208,6.017 0,2.128 0.407,4.152 1.208,6.017 0.8,1.863 1.913,3.516 3.309,4.911 1.394,1.395 3.046,2.508 4.911,3.309 1.867,0.802 3.892,1.208 6.017,1.208 2.127,0 4.137,-0.399 5.976,-1.188 v 0 c 1.836,-0.786 3.481,-1.885 4.89,-3.266 l 0.186,-0.182 -1.513,-1.513 -0.183,0.182 c -1.198,1.199 -2.61,2.145 -4.195,2.811 -1.585,0.665 -3.321,1.003 -5.16,1.003 -1.841,0 -3.583,-0.351 -5.179,-1.043 -1.598,-0.692 -3.017,-1.652 -4.218,-2.852 -1.2,-1.201 -2.16,-2.621 -2.852,-4.22 -0.692,-1.595 -1.043,-3.338 -1.043,-5.178 0,-1.84 0.351,-3.583 1.043,-5.178 0.693,-1.599 1.653,-3.019 2.852,-4.219 z m 24.286,-3.186 h 11.462 v 27.428 h 2.153 V 415.8 h 11.462 v -2.154 h -25.078 v 2.154 z"
     id="path2" /><g
     id="g10"><path
       style="fill:url(#SVGID_2_)"
       d="m 300.023,373.033 c 0,0 -5.645,2.897 -6.3,3.219 -0.768,0.378 -1.248,-0.036 -1.417,-0.254 -0.169,-0.218 -0.407,-0.838 0.079,-1.323 l 8.052,-8.419 4.162,-16.632 c 0.245,-0.977 1.104,-0.93 1.104,-0.93 0,0 0.86,-0.048 1.104,0.93 l 4.162,16.632 8.052,8.419 c 0.486,0.486 0.248,1.105 0.079,1.323 -0.169,0.218 -0.649,0.632 -1.417,0.254 -0.655,-0.323 -6.3,-3.219 -6.3,-3.219 z"
       id="path5" /><path
       style="fill:url(#SVGID_3_)"
       d="m 301.863,392.248 c 0.078,0.435 0.158,0.852 0.242,1.251 -1.055,-0.187 -2.104,-0.454 -3.137,-0.807 -10.861,-3.711 -16.678,-15.567 -12.967,-26.428 2.494,-7.299 8.667,-12.32 15.743,-13.702 l -0.557,2.227 c -5.979,1.491 -11.109,5.886 -13.245,12.138 -3.345,9.791 1.898,20.478 11.689,23.824 0.686,0.234 1.38,0.423 2.077,0.577 0.05,0.31 0.101,0.618 0.155,0.92 z m 22.522,-28.423 c -2.449,-4.992 -6.695,-8.731 -11.957,-10.528 -0.921,-0.315 -1.848,-0.559 -2.778,-0.739 l 0.556,2.222 c 0.521,0.129 1.041,0.281 1.559,0.458 4.743,1.621 8.571,4.991 10.779,9.491 2.208,4.5 2.531,9.59 0.911,14.333 -1.621,4.743 -4.991,8.571 -9.491,10.779 -1.379,0.677 -2.814,1.174 -4.277,1.495 -0.049,0.308 -0.1,0.613 -0.154,0.912 -0.079,0.438 -0.159,0.857 -0.243,1.259 1.911,-0.337 3.787,-0.946 5.578,-1.825 4.991,-2.449 8.73,-6.695 10.528,-11.957 1.797,-5.262 1.438,-10.908 -1.011,-15.9 z"
       id="path8" /><path
       style="fill:url(#SVGID_4_)"
       d="m 305.703,396.85 c -1.257,0 -2.689,-8.386 -2.689,-14.56 0,-6.173 1.432,-7.796 2.689,-7.796 1.257,0 2.689,1.623 2.689,7.796 0,6.174 -1.433,14.56 -2.689,14.56 z"
       id="path10" /></g></g>
</svg>
