<svg viewBox="0 0 201 42" fill="none" xmlns="http://www.w3.org/2000/svg">
  <g filter="url(#filter0_d_701_682)">
    <path
      d="M29.4917 24.2325V16.8893H63.8752V41.5172H32.5961C26.8263 41.5172 22.3892 41.2348 19.2849 40.6699C16.2118 40.1051 13.3269 39.1731 10.6302 37.8739C7.08679 36.1793 4.42141 33.9764 2.63403 31.265C0.87801 28.5349 0 25.2775 0 21.4929C0 14.1686 2.64971 8.75534 7.94912 5.2532C13.2799 1.75107 21.4956 0 32.5961 0H63.8752V7.14548H32.5961C26.889 7.14548 22.7185 8.25638 20.0845 10.4782C17.4818 12.6999 16.1805 16.2397 16.1805 21.0975C16.1805 25.6352 17.4818 28.9209 20.0845 30.9544C22.6871 32.9878 26.8577 34.0046 32.5961 34.0046H48.9647V24.2325H29.4917Z"
      fill="#2f56f5" />
    <path
      d="M95.7658 41.5172L65.6155 0H82.1253L102.915 30.9261L124.223 0H139.698L110.817 41.5172H95.7658Z"
      fill="#2f56e5" />
    <path d="M163.512 7.2867H141.17V0.056486H201V7.2867H178.564V41.5172H163.512V7.2867Z"
      fill="#2f56f5" />
  </g>
</svg>